<svg width="24" height="24" viewBox="0 0 24 24" fill="none" xmlns="http://www.w3.org/2000/svg">
<path d="M9.40417 22.1373C9.45961 22.0819 9.49656 22.008 9.47809 21.9156L9.03461 17.8504L13.134 13.8989L17.0513 21.9183C17.1067 22.0107 17.2361 22.0292 17.31 21.9553L19.1947 20.0705C19.2502 20.0151 19.2871 19.9412 19.2686 19.8488L17.9382 9.27941L21.3751 5.99033C22.3914 5.011 23.0936 3.71754 23.3708 2.33169C23.574 1.3154 22.6871 0.428461 21.6708 0.631719C20.248 0.908889 18.9545 1.61105 17.9567 2.64582L14.6676 6.08272L4.13518 4.71535C4.06127 4.71535 3.96888 4.73383 3.91344 4.78926L2.02869 6.67402C1.95478 6.74793 1.97326 6.87727 2.06565 6.93271L10.0851 10.85L6.09662 14.9494L2.0869 14.5244C2.01298 14.5244 1.92059 14.5429 1.86516 14.5983L0.645613 15.8178C0.571701 15.8918 0.59018 16.0211 0.68257 16.0765L5.61619 18.2015C5.6901 18.2385 5.72706 18.2754 5.76401 18.3493L7.90746 23.3014C7.94441 23.4123 8.07376 23.4308 8.16615 23.3384L9.3857 22.1188L9.40417 22.1373Z" fill="#0C201D"/>
</svg>
