<svg width="375" height="1267" viewBox="0 0 375 1267" fill="none" xmlns="http://www.w3.org/2000/svg">
<g opacity="0.7">
<g opacity="0.7">
<rect y="119" width="13" height="1141" fill="#2A9D8F"/>
<rect x="15" y="119" width="13" height="1141" fill="#1D4B45"/>
<rect x="30" y="119" width="13" height="1141" fill="#F96F24"/>
<rect x="45" y="119" width="13" height="1141" fill="#F4392A"/>
<rect x="60" y="119" width="13" height="1141" fill="#FBB428"/>
<path d="M66.5 119C66.5 112.106 67.858 105.279 70.4963 98.9091C73.1347 92.5395 77.0018 86.752 81.8769 81.8769C86.752 77.0018 92.5395 73.1347 98.9091 70.4963C105.279 67.858 112.106 66.5 119 66.5" stroke="#FBB428" stroke-width="13"/>
<path d="M51.5 119C51.5 110.136 53.2459 101.358 56.6381 93.1689C60.0303 84.9794 65.0023 77.5383 71.2703 71.2703C77.5382 65.0023 84.9794 60.0303 93.1689 56.6381C101.358 53.2459 110.136 51.5 119 51.5" stroke="#F4392A" stroke-width="13"/>
<path d="M36.5 119C36.5 108.166 38.6339 97.438 42.7799 87.4286C46.9259 77.4193 53.0029 68.3245 60.6637 60.6637C68.3245 53.0029 77.4193 46.926 87.4286 42.7799C97.438 38.6339 108.166 36.5 119 36.5" stroke="#F96F24" stroke-width="13"/>
<path d="M21.5 119C21.5 106.196 24.0219 93.5176 28.9217 81.6884C33.8216 69.8591 41.0034 59.1108 50.0571 50.0571C59.1108 41.0034 69.8591 33.8216 81.6884 28.9217C93.5176 24.0219 106.196 21.5 119 21.5" stroke="#1D4B45" stroke-width="13"/>
<path d="M6.5 119C6.5 104.226 9.40989 89.5973 15.0635 75.9481C20.7172 62.299 29.0039 49.8971 39.4505 39.4505C49.8971 29.0039 62.299 20.7172 75.9481 15.0636C89.5972 9.4099 104.226 6.5 119 6.5" stroke="#2A9D8F" stroke-width="13"/>
<rect x="251" width="13" height="133" transform="rotate(90 251 0)" fill="#2A9D8F"/>
<rect x="251" y="15" width="13" height="133" transform="rotate(90 251 15)" fill="#1D4B45"/>
<rect x="251" y="30" width="13" height="133" transform="rotate(90 251 30)" fill="#F96F24"/>
<rect x="251" y="45" width="13" height="133" transform="rotate(90 251 45)" fill="#F4392A"/>
<rect x="251" y="60" width="13" height="133" transform="rotate(90 251 60)" fill="#FBB428"/>
<path d="M374.998 60H250.523V73H374.998V60Z" fill="#FBB428"/>
<path d="M374.998 0H250.523V13H374.998V0Z" fill="#2A9D8F"/>
<path d="M374.998 45H250.523V58H374.998V45Z" fill="#F4392A"/>
<path d="M374.998 15H250.523V28H374.998V15Z" fill="#1D4B45"/>
<path d="M374.998 30H250.523V43H374.998V30Z" fill="#F96F24"/>
</g>
</g>
</svg>
