<svg width="180" height="54" viewBox="0 0 180 54" fill="none" xmlns="http://www.w3.org/2000/svg">
<g filter="url(#filter0_d_6_104)">
<mask id="path-1-inside-1_6_104" fill="white">
<path d="M3 2H154.5V50H3V2Z"/>
</mask>
<path d="M3 2H154.5V50H3V2Z" fill="#72D6C6"/>
<path d="M3 2V1H2V2H3ZM3 50H2V51H3V50ZM3 2V3H154.5V2V1H3V2ZM154.5 50V49H3V50V51H154.5V50ZM3 50H4V2H3H2V50H3Z" fill="#2A9D8F" mask="url(#path-1-inside-1_6_104)"/>
<g clip-path="url(#clip0_6_104)">
<path d="M28.4042 36.1373C28.4596 36.0819 28.4966 36.008 28.4781 35.9156L28.0346 31.8504L32.134 27.8989L36.0513 35.9183C36.1067 36.0107 36.2361 36.0292 36.31 35.9553L38.1947 34.0705C38.2502 34.0151 38.2871 33.9412 38.2686 33.8488L36.9382 23.2794L40.3751 19.9903C41.3914 19.011 42.0936 17.7175 42.3708 16.3317C42.574 15.3154 41.6871 14.4285 40.6708 14.6317C39.248 14.9089 37.9545 15.6111 36.9567 16.6458L33.6676 20.0827L23.1352 18.7154C23.0613 18.7154 22.9689 18.7338 22.9134 18.7893L21.0287 20.674C20.9548 20.7479 20.9733 20.8773 21.0656 20.9327L29.0851 24.85L25.0966 28.9494L21.0869 28.5244C21.013 28.5244 20.9206 28.5429 20.8652 28.5983L19.6456 29.8178C19.5717 29.8918 19.5902 30.0211 19.6826 30.0765L24.6162 32.2015C24.6901 32.2385 24.7271 32.2754 24.764 32.3493L26.9075 37.3014C26.9444 37.4123 27.0738 37.4308 27.1661 37.3384L28.3857 36.1188L28.4042 36.1373Z" fill="#0C201D"/>
</g>
<path d="M51.044 18.2H59.6C59.888 18.2 60.124 18.164 60.308 18.092C60.5 18.012 60.668 17.936 60.812 17.864C60.964 17.792 61.124 17.756 61.292 17.756C61.54 17.756 61.728 17.82 61.856 17.948C61.992 18.068 62.1 18.276 62.18 18.572L62.972 22.484C63.02 22.7 63.004 22.88 62.924 23.024C62.852 23.16 62.724 23.244 62.54 23.276C62.364 23.316 62.208 23.304 62.072 23.24C61.944 23.168 61.832 23.036 61.736 22.844C61.32 21.892 60.956 21.172 60.644 20.684C60.34 20.188 60.036 19.852 59.732 19.676C59.428 19.492 59.064 19.4 58.64 19.4H57.176V33.068C57.176 33.244 57.224 33.388 57.32 33.5C57.424 33.604 57.572 33.684 57.764 33.74L58.46 33.896C58.788 33.992 58.952 34.184 58.952 34.472C58.952 34.824 58.72 35 58.256 35H52.388C52.156 35 51.984 34.952 51.872 34.856C51.76 34.76 51.704 34.632 51.704 34.472C51.704 34.184 51.864 33.992 52.184 33.896L52.892 33.74C53.084 33.684 53.228 33.604 53.324 33.5C53.428 33.388 53.48 33.244 53.48 33.068V19.4H52.016C51.6 19.4 51.236 19.492 50.924 19.676C50.62 19.852 50.312 20.188 50 20.684C49.696 21.172 49.332 21.892 48.908 22.844C48.82 23.036 48.708 23.168 48.572 23.24C48.436 23.304 48.284 23.316 48.116 23.276C47.932 23.244 47.8 23.16 47.72 23.024C47.648 22.88 47.632 22.7 47.672 22.484L48.476 18.572C48.556 18.276 48.66 18.068 48.788 17.948C48.916 17.82 49.108 17.756 49.364 17.756C49.532 17.756 49.688 17.792 49.832 17.864C49.976 17.936 50.14 18.012 50.324 18.092C50.516 18.164 50.756 18.2 51.044 18.2ZM68.2033 28.664C68.2033 27.504 68.3673 26.536 68.6953 25.76C69.0233 24.976 69.4513 24.388 69.9793 23.996C70.5153 23.604 71.0873 23.408 71.6953 23.408C72.4553 23.408 73.0393 23.624 73.4473 24.056C73.8553 24.48 74.0593 25.096 74.0593 25.904C74.0593 26.608 73.9113 27.136 73.6153 27.488C73.3193 27.84 72.9393 28.016 72.4753 28.016C72.0033 28.016 71.6433 27.888 71.3953 27.632C71.1473 27.376 71.0233 27.024 71.0233 26.576V26.132C71.0153 25.884 70.9553 25.7 70.8433 25.58C70.7313 25.452 70.5513 25.388 70.3033 25.388C70.0233 25.388 69.7513 25.504 69.4873 25.736C69.2313 25.968 69.0233 26.32 68.8633 26.792C68.7033 27.264 68.6233 27.868 68.6233 28.604L68.2033 28.664ZM68.4313 24.2L68.6233 26.996V33.14C68.6233 33.356 68.6633 33.52 68.7433 33.632C68.8313 33.736 68.9953 33.808 69.2353 33.848L70.2673 34.004C70.4433 34.036 70.5753 34.092 70.6633 34.172C70.7513 34.252 70.7953 34.368 70.7953 34.52C70.7953 34.672 70.7393 34.792 70.6273 34.88C70.5233 34.96 70.3673 35 70.1593 35H64.5673C64.3593 35 64.2033 34.96 64.0993 34.88C63.9953 34.792 63.9433 34.672 63.9433 34.52C63.9433 34.408 63.9793 34.312 64.0513 34.232C64.1233 34.152 64.2313 34.088 64.3753 34.04L64.8553 33.908C64.9993 33.868 65.1033 33.792 65.1673 33.68C65.2393 33.568 65.2753 33.392 65.2753 33.152V26.192C65.2753 25.992 65.2433 25.852 65.1793 25.772C65.1233 25.684 65.0273 25.628 64.8913 25.604L64.2553 25.556C64.1113 25.524 64.0073 25.476 63.9433 25.412C63.8873 25.34 63.8593 25.252 63.8593 25.148C63.8593 25.02 63.8953 24.916 63.9673 24.836C64.0473 24.756 64.1873 24.68 64.3873 24.608L66.6433 23.816C67.0193 23.672 67.2953 23.58 67.4713 23.54C67.6473 23.492 67.7833 23.468 67.8793 23.468C68.0473 23.468 68.1713 23.524 68.2513 23.636C68.3393 23.748 68.3993 23.936 68.4313 24.2ZM82.5464 33.5V33.26L82.3184 33.212V26.024C82.3184 25.456 82.1744 25.02 81.8864 24.716C81.6064 24.404 81.2104 24.248 80.6984 24.248C80.2184 24.248 79.8504 24.352 79.5944 24.56C79.3464 24.768 79.2224 25.016 79.2224 25.304V26.36C79.2224 26.84 79.0624 27.212 78.7424 27.476C78.4224 27.732 77.9744 27.86 77.3984 27.86C76.9104 27.86 76.5384 27.744 76.2824 27.512C76.0344 27.28 75.9104 26.956 75.9104 26.54C75.9104 26.044 76.1144 25.556 76.5224 25.076C76.9384 24.596 77.5464 24.2 78.3464 23.888C79.1464 23.576 80.1304 23.42 81.2984 23.42C82.7624 23.42 83.8504 23.716 84.5624 24.308C85.2744 24.9 85.6304 25.704 85.6304 26.72V32.96C85.6304 33.184 85.6744 33.352 85.7624 33.464C85.8584 33.576 85.9904 33.632 86.1584 33.632C86.3344 33.632 86.4664 33.592 86.5544 33.512C86.6424 33.424 86.7184 33.336 86.7824 33.248C86.8224 33.192 86.8664 33.148 86.9144 33.116C86.9624 33.076 87.0184 33.056 87.0824 33.056C87.1784 33.056 87.2464 33.092 87.2864 33.164C87.3344 33.236 87.3584 33.328 87.3584 33.44C87.3584 33.704 87.2624 33.98 87.0704 34.268C86.8864 34.548 86.6104 34.788 86.2424 34.988C85.8744 35.188 85.4144 35.288 84.8624 35.288C84.1504 35.288 83.5864 35.128 83.1704 34.808C82.7544 34.488 82.5464 34.052 82.5464 33.5ZM75.3944 32.492C75.3944 31.508 75.8344 30.712 76.7144 30.104C77.6024 29.488 78.8464 29.18 80.4464 29.18C80.9664 29.18 81.4304 29.224 81.8384 29.312C82.2544 29.4 82.6144 29.52 82.9184 29.672L82.6664 30.404C82.3944 30.276 82.1144 30.176 81.8264 30.104C81.5464 30.032 81.2384 29.996 80.9024 29.996C80.2464 29.996 79.7344 30.168 79.3664 30.512C78.9984 30.856 78.8144 31.332 78.8144 31.94C78.8144 32.548 78.9704 33.012 79.2824 33.332C79.6024 33.652 80.0144 33.812 80.5184 33.812C80.9424 33.812 81.3504 33.716 81.7424 33.524C82.1344 33.324 82.4664 33.052 82.7384 32.708L82.9904 33.356C82.5584 33.972 81.9744 34.448 81.2384 34.784C80.5024 35.12 79.7224 35.288 78.8984 35.288C77.8584 35.288 77.0144 35.032 76.3664 34.52C75.7184 34.008 75.3944 33.332 75.3944 32.492ZM94.7011 35.096H93.4891C93.2491 35.096 93.0451 35.036 92.8771 34.916C92.7091 34.788 92.5731 34.6 92.4691 34.352L88.9411 25.556C88.8211 25.26 88.7171 25.06 88.6291 24.956C88.5411 24.852 88.4411 24.784 88.3291 24.752L87.9331 24.644C87.7891 24.596 87.6851 24.536 87.6211 24.464C87.5571 24.384 87.5251 24.284 87.5251 24.164C87.5251 24.012 87.5771 23.896 87.6811 23.816C87.7931 23.728 87.9451 23.684 88.1371 23.684H93.5131C93.9131 23.684 94.1131 23.84 94.1131 24.152C94.1131 24.28 94.0771 24.384 94.0051 24.464C93.9411 24.536 93.8211 24.592 93.6451 24.632L93.1891 24.728C92.8211 24.808 92.6011 24.94 92.5291 25.124C92.4571 25.308 92.5091 25.632 92.6851 26.096L95.5051 33.38L94.7611 33.848L97.6651 26.12C97.8491 25.648 97.9011 25.316 97.8211 25.124C97.7491 24.932 97.5291 24.8 97.1611 24.728L96.7051 24.632C96.5451 24.592 96.4251 24.536 96.3451 24.464C96.2731 24.384 96.2371 24.28 96.2371 24.152C96.2371 24.008 96.2891 23.896 96.3931 23.816C96.5051 23.728 96.6571 23.684 96.8491 23.684H100.101C100.285 23.684 100.429 23.728 100.533 23.816C100.645 23.896 100.701 24.012 100.701 24.164C100.701 24.268 100.669 24.36 100.605 24.44C100.549 24.52 100.433 24.584 100.257 24.632L99.8851 24.716C99.7331 24.756 99.5931 24.872 99.4651 25.064C99.3451 25.248 99.1931 25.572 99.0091 26.036L95.7091 34.424C95.6051 34.688 95.4651 34.868 95.2891 34.964C95.1131 35.052 94.9171 35.096 94.7011 35.096ZM112.34 27.956C112.34 28.364 112.224 28.676 111.992 28.892C111.76 29.108 111.424 29.216 110.984 29.216H103.496V28.34H108.392C108.784 28.34 108.98 28.164 108.98 27.812C108.98 26.732 108.788 25.916 108.404 25.364C108.02 24.812 107.508 24.536 106.868 24.536C106.372 24.536 105.932 24.688 105.548 24.992C105.172 25.288 104.876 25.724 104.66 26.3C104.444 26.868 104.336 27.552 104.336 28.352C104.336 29.912 104.696 31.08 105.416 31.856C106.144 32.632 107.108 33.02 108.308 33.02C109.02 33.02 109.644 32.876 110.18 32.588C110.716 32.292 111.124 31.88 111.404 31.352C111.54 31.2 111.648 31.096 111.728 31.04C111.808 30.984 111.892 30.956 111.98 30.956C112.1 30.956 112.188 31.012 112.244 31.124C112.3 31.236 112.324 31.368 112.316 31.52C112.284 32.2 112.044 32.828 111.596 33.404C111.156 33.98 110.556 34.44 109.796 34.784C109.044 35.12 108.176 35.288 107.192 35.288C106.048 35.288 105.032 35.052 104.144 34.58C103.256 34.108 102.56 33.444 102.056 32.588C101.552 31.732 101.3 30.732 101.3 29.588C101.3 28.38 101.54 27.312 102.02 26.384C102.508 25.456 103.2 24.728 104.096 24.2C104.992 23.664 106.064 23.396 107.312 23.396C108.368 23.396 109.272 23.592 110.024 23.984C110.776 24.376 111.348 24.916 111.74 25.604C112.14 26.284 112.34 27.068 112.34 27.956ZM118.756 17.888V33.14C118.756 33.38 118.788 33.56 118.852 33.68C118.924 33.792 119.032 33.868 119.176 33.908L119.644 34.028C119.796 34.084 119.904 34.152 119.968 34.232C120.04 34.312 120.076 34.408 120.076 34.52C120.076 34.672 120.024 34.792 119.92 34.88C119.816 34.96 119.656 35 119.44 35H114.712C114.496 35 114.336 34.96 114.232 34.88C114.136 34.792 114.088 34.672 114.088 34.52C114.088 34.408 114.12 34.312 114.184 34.232C114.256 34.152 114.368 34.088 114.52 34.04L115 33.908C115.136 33.86 115.236 33.784 115.3 33.68C115.372 33.568 115.408 33.392 115.408 33.152V19.868C115.408 19.668 115.376 19.528 115.312 19.448C115.256 19.36 115.164 19.304 115.036 19.28L114.388 19.232C114.252 19.208 114.152 19.16 114.088 19.088C114.032 19.016 114.004 18.928 114.004 18.824C114.004 18.696 114.04 18.596 114.112 18.524C114.184 18.444 114.324 18.364 114.532 18.284L116.836 17.468C117.132 17.356 117.368 17.276 117.544 17.228C117.72 17.18 117.872 17.156 118 17.156C118.256 17.156 118.444 17.224 118.564 17.36C118.692 17.496 118.756 17.672 118.756 17.888ZM132.59 27.956C132.59 28.364 132.474 28.676 132.242 28.892C132.01 29.108 131.674 29.216 131.234 29.216H123.746V28.34H128.642C129.034 28.34 129.23 28.164 129.23 27.812C129.23 26.732 129.038 25.916 128.654 25.364C128.27 24.812 127.758 24.536 127.118 24.536C126.622 24.536 126.182 24.688 125.798 24.992C125.422 25.288 125.126 25.724 124.91 26.3C124.694 26.868 124.586 27.552 124.586 28.352C124.586 29.912 124.946 31.08 125.666 31.856C126.394 32.632 127.358 33.02 128.558 33.02C129.27 33.02 129.894 32.876 130.43 32.588C130.966 32.292 131.374 31.88 131.654 31.352C131.79 31.2 131.898 31.096 131.978 31.04C132.058 30.984 132.142 30.956 132.23 30.956C132.35 30.956 132.438 31.012 132.494 31.124C132.55 31.236 132.574 31.368 132.566 31.52C132.534 32.2 132.294 32.828 131.846 33.404C131.406 33.98 130.806 34.44 130.046 34.784C129.294 35.12 128.426 35.288 127.442 35.288C126.298 35.288 125.282 35.052 124.394 34.58C123.506 34.108 122.81 33.444 122.306 32.588C121.802 31.732 121.55 30.732 121.55 29.588C121.55 28.38 121.79 27.312 122.27 26.384C122.758 25.456 123.45 24.728 124.346 24.2C125.242 23.664 126.314 23.396 127.562 23.396C128.618 23.396 129.522 23.592 130.274 23.984C131.026 24.376 131.598 24.916 131.99 25.604C132.39 26.284 132.59 27.068 132.59 27.956ZM138.586 28.664C138.586 27.504 138.75 26.536 139.078 25.76C139.406 24.976 139.834 24.388 140.362 23.996C140.898 23.604 141.47 23.408 142.078 23.408C142.838 23.408 143.422 23.624 143.83 24.056C144.238 24.48 144.442 25.096 144.442 25.904C144.442 26.608 144.294 27.136 143.998 27.488C143.702 27.84 143.322 28.016 142.858 28.016C142.386 28.016 142.026 27.888 141.778 27.632C141.53 27.376 141.406 27.024 141.406 26.576V26.132C141.398 25.884 141.338 25.7 141.226 25.58C141.114 25.452 140.934 25.388 140.686 25.388C140.406 25.388 140.134 25.504 139.87 25.736C139.614 25.968 139.406 26.32 139.246 26.792C139.086 27.264 139.006 27.868 139.006 28.604L138.586 28.664ZM138.814 24.2L139.006 26.996V33.14C139.006 33.356 139.046 33.52 139.126 33.632C139.214 33.736 139.378 33.808 139.618 33.848L140.65 34.004C140.826 34.036 140.958 34.092 141.046 34.172C141.134 34.252 141.178 34.368 141.178 34.52C141.178 34.672 141.122 34.792 141.01 34.88C140.906 34.96 140.75 35 140.542 35H134.95C134.742 35 134.586 34.96 134.482 34.88C134.378 34.792 134.326 34.672 134.326 34.52C134.326 34.408 134.362 34.312 134.434 34.232C134.506 34.152 134.614 34.088 134.758 34.04L135.238 33.908C135.382 33.868 135.486 33.792 135.55 33.68C135.622 33.568 135.658 33.392 135.658 33.152V26.192C135.658 25.992 135.626 25.852 135.562 25.772C135.506 25.684 135.41 25.628 135.274 25.604L134.638 25.556C134.494 25.524 134.39 25.476 134.326 25.412C134.27 25.34 134.242 25.252 134.242 25.148C134.242 25.02 134.278 24.916 134.35 24.836C134.43 24.756 134.57 24.68 134.77 24.608L137.026 23.816C137.402 23.672 137.678 23.58 137.854 23.54C138.03 23.492 138.166 23.468 138.262 23.468C138.43 23.468 138.554 23.524 138.634 23.636C138.722 23.748 138.782 23.936 138.814 24.2Z" fill="#0C201D"/>
<g clip-path="url(#clip1_6_104)">
<path d="M241.732 51.6441L201.3 51.4215C199.951 51.4141 198.696 50.6934 197.767 49.4655C196.837 48.2372 196.254 46.5222 196.264 44.6134L196.315 35.4905C196.326 33.3814 195.682 31.449 194.608 30.0309C193.535 28.6123 192.01 27.6864 190.283 27.6769C188.557 27.6675 187.023 28.5765 185.934 29.9831C184.845 31.3894 184.179 33.3144 184.167 35.4237L184.117 44.5466C184.107 46.4553 183.503 48.1638 182.56 49.3818C181.684 50.5127 180.534 51.2021 179.293 51.2887L178.438 49.7566L178.296 49.5019L178.004 49.5003C176.537 49.4922 175.381 49.1353 174.594 48.3819C173.812 47.6333 173.308 46.411 173.318 44.4871L173.369 35.3642C173.38 33.2551 172.737 31.3227 171.663 29.9046C170.59 28.486 169.065 27.5601 167.338 27.5506C165.612 27.5412 164.078 28.4502 162.989 29.8568C161.9 31.2631 161.234 33.1881 161.222 35.2974L161.172 44.4203C161.162 46.3169 160.554 47.5608 159.654 48.3368C158.743 49.1231 157.463 49.4898 156.003 49.4817L156.001 49.4817L4.74284 49.2389L5.00364 1.86171L156.33 2.49063L156.582 2.49983C157.835 2.58981 158.991 3.29578 159.862 4.44663C160.792 5.67481 161.376 7.38916 161.365 9.29775L161.315 18.4216C161.304 20.5308 161.948 22.4631 163.022 23.8813C164.095 25.2999 165.619 26.2257 167.346 26.2352C169.072 26.2447 170.607 25.3358 171.696 23.9291C172.785 22.5228 173.45 20.5975 173.462 18.4885L173.512 9.36461C173.523 7.40119 173.869 5.59466 174.552 4.30093C175.221 3.0355 176.179 2.30711 177.46 2.3003L179.19 2.60866L179.232 2.6167L179.275 2.61694C180.624 2.62443 181.878 3.34534 182.807 4.57293C183.736 5.80111 184.321 7.51546 184.31 9.42406L184.26 18.5479C184.249 20.6571 184.893 22.5894 185.967 24.0076C187.04 25.4262 188.564 26.3519 190.291 26.3615C192.017 26.371 193.552 25.4621 194.641 24.0554C195.73 22.6491 196.396 20.7239 196.407 18.6148L196.458 9.49093C196.468 7.58233 197.071 5.87452 198.014 4.65665C198.956 3.43912 200.219 2.73223 201.568 2.73966L242 2.96223L241.732 51.6441Z" fill="#72D6C6" stroke="#2A9D8F"/>
</g>
</g>
<defs>
<filter id="filter0_d_6_104" x="0" y="0" width="179.5" height="54" filterUnits="userSpaceOnUse" color-interpolation-filters="sRGB">
<feFlood flood-opacity="0" result="BackgroundImageFix"/>
<feColorMatrix in="SourceAlpha" type="matrix" values="0 0 0 0 0 0 0 0 0 0 0 0 0 0 0 0 0 0 127 0" result="hardAlpha"/>
<feOffset dy="1"/>
<feGaussianBlur stdDeviation="1.5"/>
<feComposite in2="hardAlpha" operator="out"/>
<feColorMatrix type="matrix" values="0 0 0 0 0 0 0 0 0 0 0 0 0 0 0 0 0 0 0.08 0"/>
<feBlend mode="normal" in2="BackgroundImageFix" result="effect1_dropShadow_6_104"/>
<feBlend mode="normal" in="SourceGraphic" in2="effect1_dropShadow_6_104" result="shape"/>
</filter>
<clipPath id="clip0_6_104">
<rect width="24" height="24" fill="white" transform="translate(19 14)"/>
</clipPath>
<clipPath id="clip1_6_104">
<rect width="22" height="48" fill="white" transform="matrix(-1 0 0 -1 176.5 50)"/>
</clipPath>
</defs>
</svg>
